HIERARCHY
ROOT Hips
{
  OFFSET 0.0000 0.0000 0.0000
  CHANNELS 6 Xposition Yposition Zposition Zrotation Xrotation Yrotation
  JOINT LeftHip
  {
    OFFSET 3.4300 0.0000 -0.0000
    CHANNELS 3 Zrotation Xrotation Yrotation
    JOINT LeftKnee
    {
      OFFSET 0.0000 -18.4700 0.0000
      CHANNELS 3 Zrotation Xrotation Yrotation
      JOINT LeftAnkle
      {
        OFFSET -0.0000 -17.9500 0.0000
        CHANNELS 3 Zrotation Xrotation Yrotation
        End Site
        {
            OFFSET 0.0000 -3.1200 0.0000
        }
      }
    }
  }
  JOINT RightHip
  {
    OFFSET -3.4300 0.0000 -0.0000
    CHANNELS 3 Zrotation Xrotation Yrotation
    JOINT RightKnee
    {
      OFFSET 0.0000 -18.4700 0.0000
      CHANNELS 3 Zrotation Xrotation Yrotation
      JOINT RightAnkle
      {
        OFFSET -0.0000 -17.9500 0.0000
        CHANNELS 3 Zrotation Xrotation Yrotation
        End Site
        {
            OFFSET 0.0000 -3.1200 -0.0000
        }
      }
    }
  }
  JOINT Chest
  {
    OFFSET 0.0000 4.5700 -0.0000
    CHANNELS 3 Zrotation Xrotation Yrotation
    JOINT Chest2
    {
      OFFSET 0.0000 6.5700 -0.0000
      CHANNELS 3 Zrotation Xrotation Yrotation
      JOINT LeftCollar
      {
        OFFSET 1.0600 4.1900 1.7600
        CHANNELS 3 Zrotation Xrotation Yrotation
        JOINT LeftShoulder
        {
          OFFSET 5.8100 0.0000 -0.0000
          CHANNELS 3 Zrotation Xrotation Yrotation
          JOINT LeftElbow
          {
            OFFSET -0.0000 -12.0800 0.0000
            CHANNELS 3 Zrotation Xrotation Yrotation
            JOINT LeftWrist
            {
              OFFSET -0.0000 -9.8200 0.0000
              CHANNELS 3 Zrotation Xrotation Yrotation
              End Site
              {
                  OFFSET 0.0000 -7.3700 0.0000
              }
            }
          }
        }
      }
      JOINT RightCollar
      {
        OFFSET -1.0600 4.1900 1.7600
        CHANNELS 3 Zrotation Xrotation Yrotation
        JOINT RightShoulder
        {
          OFFSET -6.0600 -0.0000 -0.0000
          CHANNELS 3 Zrotation Xrotation Yrotation
          JOINT RightElbow
          {
            OFFSET 0.0000 -11.0800 0.0000
            CHANNELS 3 Zrotation Xrotation Yrotation
            JOINT RightWrist
            {
              OFFSET 0.0000 -9.8200 0.0000
              CHANNELS 3 Zrotation Xrotation Yrotation
              End Site
              {
                  OFFSET -0.0000 -7.1400 0.0000
              }
            }
          }
        }
      }
    }
    JOINT Neck
    {
      OFFSET 0.0000 10.6200 0.0000
      CHANNELS 3 Zrotation Xrotation Yrotation
      JOINT Head
      {
        OFFSET -0.0000 5.1900 0.0000
        CHANNELS 3 Zrotation Xrotation Yrotation
        End Site
        {
            OFFSET 0.0000 4.1400 -0.0000
        }
      }
    }
  }
}
MOTION
Frames:	27
Frame Time:	0.033333
45.1065 41.5980 1.3251 -3.90 -3.26 -18.96 9.51 -8.28 -0.67 -2.99 19.73 -0.01 -5.00 -7.47 -0.35 -8.64 3.50 -19.15 2.97 7.84 -31.64 2.16 3.14 0.17 0.29 13.83 -3.38 0.00 0.00 0.00 6.79 -0.12 8.16 -13.73 -47.27 -64.37 -106.38 -73.37 -121.57 17.32 -4.56 0.96 5.34 0.23 -1.79 -31.33 -29.29 -42.43 43.48 -76.38 75.02 -40.87 2.23 0.19 6.48 11.16 -24.75 4.42 -14.42 -23.49 
45.1065 41.5980 1.3251 -3.90 -3.26 -18.96 9.51 -8.28 -0.67 -2.99 19.73 -0.01 -5.00 -7.47 -0.35 -8.64 3.50 -19.15 2.97 7.84 -31.64 2.16 3.14 0.17 0.29 13.83 -3.38 0.00 0.00 0.00 6.79 -0.12 8.16 -13.73 -47.27 -64.37 -106.38 -73.37 -121.57 17.32 -4.56 0.96 5.34 0.23 -1.79 -31.33 -29.29 -42.43 43.48 -76.38 75.02 -40.87 2.23 0.19 6.48 11.16 -24.75 4.42 -14.42 -23.49 
45.1047 41.5926 1.3252 -3.91 -3.25 -18.98 9.52 -8.25 -0.69 -2.99 19.71 0.03 -5.02 -7.46 -0.35 -8.64 3.48 -19.13 2.99 7.89 -31.63 2.16 3.13 0.17 0.29 13.83 -3.40 0.00 0.00 0.00 6.80 -0.12 8.16 -13.71 -47.24 -64.30 -106.40 -73.38 -121.64 17.28 -4.61 0.96 5.42 0.23 -1.76 -31.43 -29.33 -42.53 43.50 -76.38 74.99 -40.82 2.25 0.19 6.52 11.16 -24.75 4.38 -14.44 -23.46 
45.1022 41.5906 1.3322 -3.91 -3.25 -19.00 9.50 -8.28 -0.71 -2.97 19.79 0.08 -5.03 -7.49 -0.35 -8.64 3.49 -19.12 2.97 7.87 -31.62 2.17 3.14 0.17 0.28 13.84 -3.43 0.00 0.00 0.00 6.86 -0.11 8.19 -13.77 -47.18 -64.27 -106.47 -73.37 -121.80 17.27 -4.60 0.96 5.56 0.24 -1.71 -31.57 -29.36 -42.62 43.84 -76.42 75.27 -40.74 2.37 0.24 6.52 11.11 -24.72 4.36 -14.39 -23.43 
45.0972 41.5902 1.3404 -3.91 -3.24 -19.03 9.50 -8.31 -0.72 -2.99 19.88 0.12 -5.02 -7.53 -0.35 -8.63 3.49 -19.11 2.96 7.87 -31.60 2.18 3.14 0.16 0.29 13.85 -3.45 0.00 0.00 0.00 6.86 -0.11 8.18 -13.72 -47.11 -64.19 -106.57 -73.36 -122.00 17.26 -4.58 0.96 5.61 0.24 -1.69 -31.58 -29.35 -42.68 43.77 -76.41 75.17 -40.66 2.38 0.24 6.46 11.10 -24.68 4.39 -14.37 -23.41 
45.0950 41.5868 1.3453 -3.92 -3.24 -19.04 9.51 -8.28 -0.73 -2.99 19.87 0.16 -5.03 -7.52 -0.35 -8.63 3.48 -19.10 2.96 7.91 -31.58 2.19 3.13 0.16 0.28 13.85 -3.45 0.00 0.00 0.00 6.89 -0.11 8.21 -13.86 -47.14 -64.31 -106.18 -73.40 -121.60 17.27 -4.63 0.97 5.63 0.24 -1.69 -31.57 -29.34 -42.70 43.36 -76.36 74.75 -40.57 2.37 0.24 6.57 11.20 -24.69 4.35 -14.50 -23.39 
45.0926 41.5877 1.3527 -3.92 -3.24 -19.06 9.49 -8.28 -0.74 -2.94 19.90 0.17 -5.06 -7.53 -0.35 -8.63 3.48 -19.10 2.94 7.91 -31.58 2.19 3.14 0.16 0.26 13.86 -3.45 0.00 0.00 0.00 6.97 -0.11 8.27 -14.08 -47.17 -64.46 -105.80 -73.44 -121.21 17.26 -4.67 0.97 5.60 0.24 -1.71 -31.51 -29.29 -42.66 43.07 -76.34 74.41 -40.45 2.36 0.23 6.60 11.12 -24.69 4.30 -14.47 -23.36 
45.0971 41.5873 1.3569 -3.92 -3.24 -19.06 9.46 -8.23 -0.77 -2.90 19.80 0.21 -5.07 -7.46 -0.34 -8.65 3.47 -19.11 2.96 7.94 -31.57 2.19 3.15 0.16 0.26 13.86 -3.47 0.00 0.00 0.00 6.93 -0.11 8.25 -14.04 -47.20 -64.46 -105.72 -73.46 -121.15 17.23 -4.66 0.97 5.67 0.24 -1.70 -31.52 -29.17 -42.58 42.45 -76.31 73.80 -40.25 2.30 0.21 6.59 11.21 -24.66 4.35 -14.56 -23.35 
45.0960 41.5864 1.3611 -3.93 -3.23 -19.08 9.46 -8.19 -0.79 -2.91 19.76 0.24 -5.08 -7.43 -0.34 -8.66 3.45 -19.10 2.97 7.98 -31.56 2.20 3.14 0.16 0.26 13.87 -3.48 0.00 0.00 0.00 6.87 -0.11 8.22 -14.03 -47.24 -64.48 -105.38 -73.56 -120.83 17.09 -4.75 0.97 5.79 0.25 -1.68 -31.65 -29.00 -42.47 41.34 -76.19 72.65 -40.08 2.14 0.15 6.64 11.30 -24.66 4.34 -14.68 -23.33 
45.0951 41.5871 1.3657 -3.93 -3.23 -19.09 9.46 -8.25 -0.79 -2.91 19.86 0.27 -5.08 -7.47 -0.34 -8.67 3.45 -19.11 2.99 7.99 -31.55 2.19 3.14 0.16 0.26 13.88 -3.48 0.00 0.00 0.00 6.78 -0.12 8.15 -13.83 -47.29 -64.37 -105.26 -73.66 -120.77 16.90 -4.87 0.98 5.91 0.25 -1.67 -31.78 -28.84 -42.43 40.96 -76.19 72.19 -39.89 2.12 0.14 6.63 11.30 -24.63 4.36 -14.72 -23.30 
45.0940 41.5894 1.3696 -3.93 -3.23 -19.10 9.46 -8.26 -0.80 -2.90 19.89 0.30 -5.08 -7.48 -0.34 -8.68 3.44 -19.11 3.00 8.03 -31.53 2.20 3.12 0.16 0.27 13.89 -3.48 0.00 0.00 0.00 6.70 -0.12 8.10 -13.71 -47.35 -64.30 -104.76 -73.80 -120.30 16.66 -5.12 1.00 6.01 0.25 -1.65 -31.93 -28.74 -42.37 40.42 -76.15 71.62 -39.78 2.10 0.13 6.73 11.49 -24.63 4.37 -14.96 -23.27 
45.0925 41.5897 1.3734 -3.93 -3.23 -19.12 9.46 -8.28 -0.80 -2.92 19.96 0.32 -5.08 -7.52 -0.34 -8.68 3.45 -19.10 3.01 8.03 -31.52 2.19 3.12 0.16 0.28 13.89 -3.47 0.00 0.00 0.00 6.65 -0.12 8.07 -13.59 -47.39 -64.21 -104.40 -73.93 -119.95 16.44 -5.38 1.03 6.06 0.26 -1.65 -32.00 -28.64 -42.31 40.09 -76.11 71.24 -39.75 2.06 0.12 6.82 11.57 -24.62 4.35 -15.10 -23.22 
45.0912 41.5870 1.3774 -3.93 -3.23 -19.14 9.47 -8.28 -0.80 -2.92 19.96 0.35 -5.09 -7.50 -0.34 -8.69 3.45 -19.10 3.00 8.04 -31.50 2.19 3.12 0.16 0.28 13.90 -3.46 0.00 0.00 0.00 6.61 -0.12 8.05 -13.57 -47.43 -64.26 -104.23 -73.98 -119.85 16.42 -5.45 1.03 6.10 0.26 -1.64 -32.16 -28.60 -42.24 39.69 -76.04 70.76 -39.81 2.05 0.12 6.89 11.57 -24.59 4.30 -15.20 -23.15 
45.0898 41.5857 1.3813 -3.93 -3.23 -19.16 9.47 -8.26 -0.79 -2.93 19.94 0.36 -5.10 -7.50 -0.34 -8.69 3.43 -19.10 3.00 8.08 -31.46 2.21 3.11 0.16 0.31 13.91 -3.46 0.00 0.00 0.00 6.56 -0.12 8.01 -13.48 -47.47 -64.26 -104.22 -74.00 -119.86 16.46 -5.48 1.04 6.16 0.26 -1.63 -32.25 -28.60 -42.22 39.44 -76.01 70.49 -39.77 2.04 0.11 7.03 11.74 -24.60 4.26 -15.44 -23.10 
45.0935 41.5922 1.3827 -3.92 -3.22 -19.18 9.46 -8.29 -0.79 -2.92 19.96 0.38 -5.10 -7.49 -0.34 -8.70 3.42 -19.10 3.01 8.07 -31.46 2.20 3.13 0.16 0.32 13.92 -3.45 0.00 0.00 0.00 6.54 -0.12 8.01 -13.51 -47.53 -64.31 -104.06 -74.02 -119.70 16.46 -5.52 1.05 6.23 0.26 -1.61 -32.43 -28.62 -42.20 38.97 -75.92 69.94 -39.79 2.00 0.10 7.31 11.85 -24.65 4.08 -15.69 -23.03 
45.0843 41.5980 1.3914 -3.90 -3.20 -19.26 9.46 -8.23 -0.73 -2.92 19.84 0.39 -5.10 -7.44 -0.34 -8.69 3.39 -19.04 2.96 8.02 -31.45 2.20 3.15 0.16 0.32 13.92 -3.41 0.00 0.00 0.00 6.47 -0.12 7.96 -13.39 -47.59 -64.24 -104.24 -73.99 -119.93 16.51 -5.46 1.04 6.24 0.27 -1.60 -32.45 -28.64 -42.10 39.00 -75.91 69.89 -39.77 2.01 0.10 7.25 11.72 -24.58 4.08 -15.61 -22.98 
45.0776 41.6000 1.3910 -3.89 -3.14 -19.36 9.49 -8.24 -0.65 -2.89 19.81 0.42 -5.14 -7.44 -0.34 -8.65 3.30 -18.96 2.93 8.02 -31.43 2.20 3.16 0.15 0.36 13.91 -3.36 0.00 0.00 0.00 6.46 -0.12 7.97 -13.35 -47.63 -64.18 -104.32 -73.97 -120.07 16.56 -5.47 1.05 6.22 0.27 -1.60 -32.50 -28.75 -41.90 38.72 -75.84 69.52 -39.81 2.04 0.11 7.11 11.69 -24.49 4.17 -15.60 -22.96 
45.0782 41.5977 1.3800 -3.93 -3.03 -19.43 9.60 -8.39 -0.63 -2.94 19.94 0.50 -5.13 -7.49 -0.34 -8.58 3.17 -18.92 2.93 8.04 -31.43 2.19 3.18 0.16 0.47 13.92 -3.31 0.00 0.00 0.00 6.32 -0.13 7.88 -13.12 -47.76 -63.94 -104.42 -74.00 -120.20 16.48 -5.53 1.05 6.16 0.27 -1.59 -32.53 -29.00 -41.48 38.27 -75.69 68.99 -39.83 2.06 0.12 6.95 11.53 -24.43 4.23 -15.51 -22.95 
45.0788 41.5880 1.3587 -4.03 -2.80 -19.44 9.84 -8.75 -0.68 -3.07 20.27 0.62 -5.09 -7.62 -0.35 -8.39 2.94 -18.93 2.90 8.06 -31.44 2.18 3.18 0.15 0.68 13.91 -3.31 0.00 0.00 0.00 5.56 -0.14 7.36 -11.84 -48.28 -62.57 -103.95 -73.99 -119.90 16.47 -5.60 1.06 5.48 0.23 -1.74 -31.76 -29.65 -40.21 37.19 -75.34 68.05 -40.03 2.07 0.12 6.80 11.16 -24.39 4.23 -15.29 -22.97 
45.1151 41.5480 1.2829 -4.39 -2.34 -19.18 10.38 -9.81 -1.15 -3.42 21.32 0.97 -4.96 -7.99 -0.37 -7.93 2.47 -19.26 2.88 8.23 -31.44 2.18 3.21 0.15 1.20 13.95 -3.41 0.00 0.00 0.00 3.41 -0.13 5.81 -7.28 -49.57 -57.94 -100.83 -74.27 -116.71 16.70 -6.54 1.21 5.55 0.25 -1.64 -31.78 -30.42 -39.77 36.38 -75.30 67.75 -39.89 2.21 0.17 7.20 10.47 -24.58 3.80 -15.12 -22.97 
45.2355 41.4715 1.2101 -5.15 -1.82 -18.43 11.12 -11.41 -2.30 -3.96 23.25 1.59 -4.67 -8.73 -0.40 -7.26 2.19 -20.13 3.03 8.40 -31.38 2.20 3.31 0.15 1.96 14.43 -3.62 0.00 0.00 0.00 0.61 -0.02 3.71 -1.88 -50.44 -53.26 -103.44 -75.02 -119.86 15.20 -5.93 1.02 5.46 0.25 -1.59 -32.31 -31.07 -39.94 36.20 -75.18 67.37 -39.91 2.22 0.18 9.48 8.72 -25.43 1.72 -15.00 -22.83 
45.3601 41.3721 1.1970 -6.20 -1.43 -17.76 12.03 -12.97 -3.33 -4.51 25.69 2.13 -4.34 -9.82 -0.43 -6.47 2.20 -20.95 3.25 8.53 -31.26 2.32 3.41 0.16 2.76 15.22 -3.72 0.00 0.00 0.00 -0.36 0.05 2.96 0.36 -51.19 -50.70 -95.77 -75.53 -112.69 15.61 -6.67 1.15 4.99 0.24 -1.64 -32.49 -32.00 -39.98 34.26 -74.68 65.22 -40.16 2.01 0.10 11.13 7.46 -26.01 0.51 -14.97 -22.77 
45.7007 41.2434 1.1675 -7.31 -0.80 -16.92 12.44 -15.22 -4.64 -4.72 28.69 2.78 -3.92 -11.03 -0.42 -5.93 1.94 -21.99 3.67 8.63 -31.06 2.52 3.87 0.17 3.86 15.33 -4.19 0.00 0.00 0.00 -1.08 0.10 2.43 4.15 -51.15 -46.16 -85.39 -76.35 -102.64 15.32 -8.17 1.33 5.14 0.27 -1.42 -33.25 -33.43 -39.96 31.57 -74.03 62.64 -40.03 1.90 0.06 10.15 10.29 -25.96 3.04 -16.65 -23.24 
45.9421 41.2217 1.4110 -8.17 -0.11 -16.99 12.80 -16.06 -4.89 -4.52 30.18 3.11 -3.64 -12.04 -0.42 -4.66 2.76 -21.12 3.06 6.16 -31.77 2.95 5.45 0.14 4.50 15.27 -4.14 0.00 0.00 0.00 -0.73 0.07 2.73 6.07 -50.18 -41.95 -74.32 -76.42 -93.21 15.12 -8.29 1.33 5.65 0.34 -0.95 -34.86 -35.68 -39.60 28.70 -73.10 59.69 -40.02 2.22 0.18 8.75 11.06 -25.54 4.97 -16.27 -23.47 
46.3217 41.2273 1.6843 -8.59 0.62 -17.20 12.24 -16.78 -5.48 -3.70 31.26 3.59 -3.61 -12.91 -0.40 -3.88 3.47 -20.08 2.25 3.30 -32.56 3.43 7.36 0.08 4.98 15.15 -4.71 0.00 0.00 0.00 -0.56 0.05 2.93 10.01 -46.74 -34.26 -69.75 -75.71 -91.25 15.73 -7.43 1.27 6.32 0.46 -0.23 -36.50 -38.67 -38.54 24.46 -71.77 55.77 -40.12 2.07 0.12 8.07 10.75 -25.07 5.40 -15.63 -23.28 
46.9139 41.2102 1.9049 -8.48 1.54 -18.27 11.14 -17.63 -7.40 -3.52 32.52 5.76 -4.13 -14.31 -0.46 -4.43 3.14 -19.25 2.11 1.63 -32.34 3.90 8.92 0.10 4.75 14.67 -4.30 0.00 0.00 0.00 0.26 0.00 3.46 13.72 -41.58 -25.76 -70.82 -75.22 -94.22 16.17 -5.84 1.07 7.54 0.69 1.07 -39.27 -42.22 -37.69 19.18 -69.72 50.80 -40.43 1.48 -0.09 8.89 11.92 -25.13 5.25 -16.92 -22.98 
47.3964 41.1734 2.1447 -8.28 2.86 -20.66 10.74 -17.53 -9.21 -4.42 31.72 9.06 -5.09 -14.82 -0.59 -5.28 1.61 -18.20 2.04 1.22 -30.91 5.24 9.96 -0.06 4.15 14.02 -2.85 0.00 0.00 0.00 -0.70 0.03 3.14 20.51 -33.72 -13.88 -80.07 -74.67 -103.88 16.38 -3.90 0.81 8.27 0.95 2.51 -40.47 -46.85 -35.86 15.55 -67.93 48.10 -40.61 1.20 -0.19 6.32 10.51 -23.98 6.63 -14.87 -22.94 
